<svg width="100" height="91" viewBox="0 0 100 91" fill="none" xmlns="http://www.w3.org/2000/svg">
<path d="M95.8951 53.8693C93.2043 59.5852 88.6938 64.3739 83.2634 67.5837C77.7996 70.8063 71.4687 72.468 65.1172 72.0372C58.9701 71.62 53.0053 69.2394 48.0986 65.5407C45.642 63.6926 43.439 61.4866 41.6026 59.0173C39.7519 56.5306 38.2062 53.7198 37.2901 50.7519C36.3474 47.6945 36.0561 44.257 37.4688 41.285C38.9717 38.1482 41.6575 35.5772 44.7021 33.9418C47.7869 32.291 51.3222 31.2953 54.8339 31.3972C56.3924 31.4433 57.9538 31.657 59.3885 32.2795C60.666 32.8321 61.8574 33.64 62.874 34.5915C64.784 36.3733 66.5 38.9885 66.0463 41.7229C65.8122 43.1312 64.9826 44.4459 64.1543 45.5839C63.189 46.9047 62.0379 48.1205 60.7502 49.1203C59.4801 50.1058 57.9758 50.8207 56.5215 51.4859C54.9026 52.2218 53.2402 52.8441 51.5368 53.3595C48.134 54.381 44.5991 54.978 41.0455 55.1068C37.5758 55.2341 34.001 54.9878 30.6319 54.1183C27.3845 53.2865 24.3591 51.7945 21.6312 49.8588C15.5582 45.5573 11.305 39.2852 7.9153 32.7663C7.03813 31.0789 6.21442 29.3711 5.41488 27.6463C5.24973 27.2957 5.486 26.8525 5.82682 26.7217C6.20773 26.5756 6.58626 26.7831 6.75141 27.1337C9.82599 33.7505 13.3399 40.4135 18.6517 45.5283C20.9241 47.7153 23.485 49.6154 26.3177 51.0049C29.2244 52.4274 32.3136 53.1666 35.5229 53.4995C42.2308 54.1999 49.1475 53.1261 55.3333 50.4468C56.7537 49.833 58.224 49.1694 59.489 48.2702C60.6922 47.4101 61.7456 46.3391 62.6593 45.1837C63.4526 44.1742 64.3304 42.9253 64.5926 41.6902C64.8274 40.6036 64.5807 39.5406 64.1047 38.5197C63.0492 36.2875 60.884 34.4196 58.5976 33.4951C57.2892 32.9621 55.7868 32.8024 54.3644 32.8114C52.6974 32.8222 51.0323 33.0776 49.4399 33.5428C46.2885 34.4602 43.3266 36.0716 41.0973 38.5135C40.0212 39.6851 39.0662 41.0327 38.496 42.5239C37.985 43.8698 37.8485 45.3326 37.9531 46.7644C38.1739 49.7383 39.3397 52.6181 40.8091 55.1898C42.2538 57.7173 44.079 60.0376 46.1984 62.0457C50.407 66.0428 55.7111 68.8991 61.4047 70.0729C67.2653 71.2823 73.3394 70.57 78.8333 68.2251C84.3071 65.8879 89.104 61.9858 92.4415 57.0568C93.2535 55.8561 93.9653 54.5942 94.5821 53.2844C94.9847 52.4554 96.2884 53.0362 95.8951 53.8693Z" fill="#231F20"/>
<path d="M1.87343 32.4233C1.95005 32.3633 2.01745 32.2991 2.09151 32.2324C2.04574 32.2729 2.00253 32.3202 1.95676 32.3607C2.41915 31.9074 2.77525 31.3568 3.12979 30.8222C3.50594 30.264 3.87284 29.7017 4.23718 29.1326C4.44251 28.8086 4.64527 28.4778 4.84804 28.1471C4.81408 28.1984 4.7868 28.2472 4.7554 28.3053C4.99213 27.9232 5.2078 27.5261 5.45378 27.1481C5.75019 26.6818 6.30698 26.4146 6.8567 26.5487C7.24612 26.6447 7.60616 26.8439 7.98011 26.9994C8.31964 27.1451 8.66329 27.2816 9.0085 27.4022C9.39994 27.5433 9.79549 27.6753 10.1859 27.7938C10.1263 27.7783 10.0734 27.7603 10.0113 27.7381C11.086 28.0618 12.1793 28.2941 13.2937 28.4416C13.6082 28.4819 13.9293 28.5197 14.2546 28.5483C14.4272 28.5587 14.6167 28.693 14.7157 28.8313C14.824 28.9738 14.886 29.1953 14.8463 29.3715C14.8066 29.5478 14.7216 29.726 14.5632 29.8327C14.3982 29.942 14.2209 29.9794 14.0231 29.9633C11.976 29.7826 9.96102 29.3059 8.05216 28.5662C7.79172 28.4668 7.5354 28.3582 7.27908 28.2495C7.02944 28.1383 6.77878 28.0045 6.51678 27.921C6.57637 27.9364 6.62928 27.9545 6.69144 27.9766C6.6226 27.957 6.55632 27.9441 6.47668 27.9363C6.53783 27.9359 6.60157 27.9421 6.66272 27.9416C6.60825 27.9395 6.55634 27.9441 6.507 27.9554C6.5697 27.939 6.63239 27.9226 6.69766 27.9129C6.655 27.9216 6.60823 27.9396 6.5707 27.9616C6.62828 27.9319 6.68587 27.9021 6.74089 27.8657C6.69667 27.8903 6.66171 27.919 6.62674 27.9478C6.67251 27.9072 6.71571 27.86 6.76148 27.8194C6.68331 27.8954 6.6236 27.9796 6.56648 28.0705C6.60044 28.0192 6.62772 27.9704 6.65912 27.9124C5.73481 29.4398 4.81977 30.9713 3.78094 32.4199C3.48251 32.841 3.14864 33.2297 2.74649 33.5603C2.60662 33.6753 2.37738 33.7172 2.20628 33.6908C2.03519 33.6645 1.84005 33.5554 1.74511 33.4078C1.49978 33.0879 1.56539 32.6795 1.87343 32.4233Z" fill="#231F20"/>
</svg>
